<svg width="24" height="24" viewBox="0 0 24 24" fill="none" xmlns="http://www.w3.org/2000/svg">
<path d="M10.5 21.5C10.5 22.0523 10.9477 22.5 11.5 22.5C12.0523 22.5 12.5 22.0523 12.5 21.5H11.5H10.5ZM12.2071 1.79289C11.8166 1.40237 11.1834 1.40237 10.7929 1.79289L4.42893 8.15685C4.03841 8.54738 4.03841 9.18054 4.42893 9.57107C4.81946 9.96159 5.45262 9.96159 5.84315 9.57107L11.5 3.91421L17.1569 9.57107C17.5474 9.96159 18.1805 9.96159 18.5711 9.57107C18.9616 9.18054 18.9616 8.54738 18.5711 8.15685L12.2071 1.79289ZM11.5 21.5H12.5L12.5 2.5H11.5H10.5L10.5 21.5H11.5Z" fill="black"/>
</svg>
