<svg width="24" height="24" viewBox="0 0 24 24" fill="none" xmlns="http://www.w3.org/2000/svg">
<path d="M12.5 2.5C12.5 1.94772 12.0523 1.5 11.5 1.5C10.9477 1.5 10.5 1.94772 10.5 2.5H11.5H12.5ZM10.7929 22.2071C11.1834 22.5976 11.8166 22.5976 12.2071 22.2071L18.5711 15.8431C18.9616 15.4526 18.9616 14.8195 18.5711 14.4289C18.1805 14.0384 17.5474 14.0384 17.1569 14.4289L11.5 20.0858L5.84315 14.4289C5.45262 14.0384 4.81946 14.0384 4.42893 14.4289C4.03841 14.8195 4.03841 15.4526 4.42893 15.8431L10.7929 22.2071ZM11.5 2.5H10.5L10.5 21.5H11.5H12.5L12.5 2.5H11.5Z" fill="black"/>
</svg>
