<svg width="24" height="24" viewBox="0 0 24 24" fill="none" xmlns="http://www.w3.org/2000/svg">
<path d="M13.1719 1C13.9674 1.00008 14.7304 1.31637 15.293 1.87891L20.1211 6.70703C20.6836 7.26957 20.9999 8.03258 21 8.82812V20C21 21.6569 19.6569 23 18 23H6C4.34315 23 3 21.6569 3 20V4C3 2.34315 4.34315 1 6 1H13.1719ZM6 3C5.44772 3 5 3.44772 5 4V20C5 20.5523 5.44772 21 6 21H18C18.5523 21 19 20.5523 19 20V11H14C12.3431 11 11 9.65685 11 8V3H6ZM13 8C13 8.55228 13.4477 9 14 9H19V8.82812C18.9999 8.56302 18.8945 8.30856 18.707 8.12109L13.8789 3.29297C13.6914 3.1055 13.437 3.00008 13.1719 3H13V8Z" fill="black"/>
<path d="M9 12L6.76674 14.6799C6.61222 14.8653 6.61222 15.1347 6.76674 15.3201L9 18" stroke="black" stroke-width="1.5" stroke-linecap="round"/>
<path d="M12 18L14.2333 15.3201C14.3878 15.1347 14.3878 14.8653 14.2333 14.6799L12 12" stroke="black" stroke-width="1.5" stroke-linecap="round"/>
</svg>
