<svg width="24" height="24" viewBox="0 0 24 24" fill="none" xmlns="http://www.w3.org/2000/svg">
<path d="M8.28906 3.99414C8.71102 3.99422 9.12471 4.11308 9.48242 4.33691L12.207 6.04199C12.3263 6.11659 12.4648 6.15621 12.6055 6.15625H18.4668C19.6895 6.15649 20.6883 7.13305 20.7158 8.35547L20.7793 11.2139H21.6377C21.6759 11.2079 21.715 11.2041 21.7549 11.2041C22.1689 11.2043 22.5049 11.54 22.5049 11.9541V17.7451C22.5045 18.9873 21.4971 19.9949 20.2549 19.9951H3.75C2.5077 19.995 1.50042 18.9873 1.5 17.7451V6.24414C1.5 5.00156 2.50745 3.99424 3.75 3.99414H8.28906ZM3.75 5.49414C3.33587 5.49424 3 5.82999 3 6.24414V17.7451C3.00042 18.1589 3.33613 18.495 3.75 18.4951H20.2549C20.6687 18.4949 21.0045 18.1589 21.0049 17.7451V12.7139H9.17969C8.8079 12.714 8.45419 12.8799 8.2168 13.166L6.4209 15.3311C6.15652 15.6496 5.68396 15.6937 5.36523 15.4297C5.0468 15.1652 5.00225 14.6917 5.2666 14.373L7.0625 12.208C7.58487 11.5784 8.36159 11.214 9.17969 11.2139H19.2793L19.2158 8.38965C19.2067 7.98223 18.8743 7.65649 18.4668 7.65625H12.6055C12.1834 7.65621 11.7689 7.53734 11.4111 7.31348L8.68652 5.6084C8.56736 5.53384 8.42962 5.49422 8.28906 5.49414H3.75Z" fill="black"/>
</svg>
