<svg width="24" height="24" viewBox="0 0 24 24" fill="none" xmlns="http://www.w3.org/2000/svg">
<g clip-path="url(#clip0_35_11)">
<mask id="path-1-inside-1_35_11" fill="white">
<path d="M2.90907 5.09093C5.3264 2.6736 9.24634 2.6736 11.6637 5.09093C11.8368 5.26407 12.1175 5.26407 12.2907 5.09093L12.3349 5.04673C14.7405 2.64109 18.641 2.64112 21.0466 5.04673C23.4523 7.45239 23.4523 11.3528 21.0466 13.7585L12.6422 22.163C12.2516 22.5535 11.6185 22.5535 11.2279 22.163L2.90977 13.8448C0.492543 11.4276 0.492051 7.50827 2.90907 5.09093Z"/>
</mask>
<path d="M2.90907 5.09093L1.49486 3.67671L1.49477 3.67681L2.90907 5.09093ZM21.0466 5.04673L22.4609 3.63252L22.4608 3.6325L21.0466 5.04673ZM2.90907 5.09093L4.32329 6.50514C5.95956 4.86887 8.61318 4.86887 10.2495 6.50514L11.6637 5.09093L13.0779 3.67671C9.87951 0.478341 4.69323 0.478341 1.49486 3.67671L2.90907 5.09093ZM12.2907 5.09093L13.7049 6.50514L13.7491 6.46094L12.3349 5.04673L10.9206 3.63252L10.8765 3.67671L12.2907 5.09093ZM12.3349 5.04673L13.7491 6.46094C15.3737 4.83636 18.0078 4.83636 19.6324 6.46096L21.0466 5.04673L22.4608 3.6325C19.2741 0.445875 14.1074 0.44581 10.9206 3.63252L12.3349 5.04673ZM21.0466 5.04673L19.6324 6.46094C21.257 8.08556 21.257 10.7197 19.6324 12.3443L21.0466 13.7585L22.4609 15.1727C25.6476 11.986 25.6476 6.81923 22.4609 3.63252L21.0466 5.04673ZM21.0466 13.7585L19.6324 12.3443L11.2279 20.7488L12.6422 22.163L14.0564 23.5772L22.4609 15.1727L21.0466 13.7585ZM11.2279 22.163L12.6422 20.7488L4.32398 12.4306L2.90977 13.8448L1.49555 15.259L9.81372 23.5772L11.2279 22.163ZM2.90977 13.8448L4.32398 12.4306C2.68761 10.7942 2.68748 8.14117 4.32338 6.50504L2.90907 5.09093L1.49477 3.67681C-1.70338 6.87538 -1.70252 12.061 1.49555 15.259L2.90977 13.8448ZM12.6422 22.163L11.2279 20.7488C11.6185 20.3583 12.2516 20.3583 12.6422 20.7488L11.2279 22.163L9.81372 23.5772C10.9853 24.7488 12.8848 24.7488 14.0564 23.5772L12.6422 22.163ZM11.6637 5.09093L10.2495 6.50514C11.2036 7.45933 12.7507 7.45933 13.7049 6.50514L12.2907 5.09093L10.8765 3.67671C11.4844 3.06881 12.47 3.06881 13.0779 3.67671L11.6637 5.09093Z" fill="black" mask="url(#path-1-inside-1_35_11)"/>
</g>
<defs>
<clipPath id="clip0_35_11">
<rect width="24" height="24" fill="white"/>
</clipPath>
</defs>
</svg>
