<svg width="24" height="24" viewBox="0 0 24 24" fill="none" xmlns="http://www.w3.org/2000/svg">
<circle cx="12" cy="12" r="10" stroke="black" stroke-width="2"/>
<path d="M12 17C12.5523 17 13 17.4477 13 18C13 18.5523 12.5523 19 12 19C11.4477 19 11 18.5523 11 18C11 17.4477 11.4477 17 12 17ZM12.2061 5C13.5071 5.00005 14.5851 5.50949 15.3232 6.37793C16.045 7.22726 16.3828 8.3469 16.3828 9.5C16.3828 10.7764 15.8726 11.8453 15.2939 12.7334C15.0045 13.1775 14.6839 13.5969 14.3848 13.9814C14.0775 14.3765 13.8001 14.7267 13.5527 15.0771C13.2342 15.5282 12.6093 15.6358 12.1582 15.3174C11.7072 14.9989 11.5996 14.374 11.918 13.9229C12.1999 13.5235 12.5185 13.1233 12.8066 12.7529C13.103 12.372 13.3783 12.0098 13.6182 11.6416C14.0983 10.9047 14.3828 10.2236 14.3828 9.5C14.3828 8.72022 14.1545 8.09027 13.7998 7.67285C13.4614 7.27474 12.9514 7.00004 12.2061 7C10.6571 7.00012 9.5 8.17244 9.5 9.5C9.5 10.0523 9.05228 10.5 8.5 10.5C7.94782 10.4999 7.5 10.0522 7.5 9.5C7.5 6.96171 9.66179 5.00012 12.2061 5Z" fill="black"/>
</svg>
