<svg width="24" height="24" viewBox="0 0 24 24" fill="none" xmlns="http://www.w3.org/2000/svg">
<path d="M8.17097 21H6.44731H5C3.89543 21 3 20.1046 3 19L3 5C3 3.89543 3.89543 3 5 3L6.44731 3H8.17097" stroke="black" stroke-width="2" stroke-linecap="round"/>
<path d="M8 11C7.44772 11 7 11.4477 7 12C7 12.5523 7.44772 13 8 13V12V11ZM21.7071 12.7071C22.0976 12.3166 22.0976 11.6834 21.7071 11.2929L15.3431 4.92893C14.9526 4.53841 14.3195 4.53841 13.9289 4.92893C13.5384 5.31946 13.5384 5.95262 13.9289 6.34315L19.5858 12L13.9289 17.6569C13.5384 18.0474 13.5384 18.6805 13.9289 19.0711C14.3195 19.4616 14.9526 19.4616 15.3431 19.0711L21.7071 12.7071ZM8 12V13H21V12V11H8V12Z" fill="black"/>
</svg>
