<svg width="24" height="24" viewBox="0 0 24 24" fill="none" xmlns="http://www.w3.org/2000/svg">
<path d="M16.6513 1.4343C17.0906 0.995105 17.7865 0.966984 18.2578 1.35129L18.3486 1.4343L22.0654 5.15109C22.534 5.61968 22.5339 6.37972 22.0654 6.84836L9.23823 19.6755C9.11428 19.7994 8.96447 19.8949 8.79975 19.9548L3.69526 21.8112C2.7917 22.1397 1.888 21.325 2.12104 20.3923L3.51655 14.8112L3.56635 14.656C3.62648 14.5059 3.71685 14.3688 3.83198 14.2536L16.6513 1.4343ZM5.40327 15.5105L4.42573 19.4167L7.95014 18.1345L16.8349 9.24875L14.2929 6.70676C14.2783 6.69213 14.2654 6.67613 14.2519 6.66086L5.40327 15.5105ZM15.6611 5.25168C15.6764 5.2652 15.6924 5.27808 15.707 5.29269L18.249 7.83469L20.0859 5.99973L17.4999 3.41379L15.6611 5.25168Z" fill="black"/>
</svg>
