<svg width="24" height="24" viewBox="0 0 24 24" fill="none" xmlns="http://www.w3.org/2000/svg">
<path d="M15.8232 1.5C16.8383 1.50004 17.7854 2.01334 18.3389 2.86426L21.5137 7.74707C21.8302 8.23379 21.999 8.80223 21.999 9.38281V19.3682C21.9988 21.0248 20.6557 22.3681 18.999 22.3682H14.8457C14.8278 22.3705 14.81 22.3741 14.792 22.376L14.5879 22.3857H8C7.91558 22.3857 7.83265 22.3783 7.75098 22.3682H5C3.34328 22.3682 2.00021 21.0248 2 19.3682V4.5C2 2.84315 3.34315 1.5 5 1.5H15.8232ZM5 3.5C4.44772 3.5 4 3.94771 4 4.5V19.3682C4.00021 19.9203 4.44785 20.3682 5 20.3682H6V16C6 14.8954 6.89543 14 8 14H14.5879L14.792 14.0107C15.8006 14.113 16.5879 14.9644 16.5879 16V20.3682H18.999C19.5511 20.3681 19.9988 19.9202 19.999 19.3682V9.38281C19.999 9.18937 19.9433 8.99911 19.8379 8.83691L16.6621 3.95508C16.4776 3.67146 16.1616 3.50004 15.8232 3.5H8V6.78906C8.00018 7.34119 8.44783 7.78906 9 7.78906H15.4707C16.0227 7.78931 16.4705 8.23707 16.4707 8.78906C16.4705 9.34104 16.0227 9.78882 15.4707 9.78906H9C7.34326 9.78906 6.00018 8.44576 6 6.78906V3.5H5ZM8 20.3682H14.5879V16H8V20.3682Z" fill="black"/>
</svg>
