<svg width="24" height="24" viewBox="0 0 24 24" fill="none" xmlns="http://www.w3.org/2000/svg">
<path d="M16.249 1C17.001 1 17.7023 1.39908 18.1123 2.06055L21.6406 7.75391C21.8751 8.13226 22 8.57407 22 9.02539V20.668C22 21.9557 21.0055 22.9998 19.7783 23H4.22266C2.99529 23 2 21.9559 2 20.668V3.33203C2 2.04412 2.99529 1 4.22266 1H16.249ZM10.8896 12.6602C9.0486 12.6602 7.55566 14.2263 7.55566 16.1582C7.55587 18.0899 9.04873 19.6553 10.8896 19.6553C12.7304 19.6551 14.2224 18.0898 14.2227 16.1582C14.2227 14.2264 12.7306 12.6603 10.8896 12.6602ZM5.33398 4.49805C4.7203 4.49805 4.22266 5.02011 4.22266 5.66406C4.22272 6.30796 4.72034 6.83008 5.33398 6.83008H15.334C15.9476 6.83008 16.4453 6.30796 16.4453 5.66406C16.4453 5.02011 15.9477 4.49805 15.334 4.49805H5.33398Z" fill="black"/>
</svg>
