<svg width="24" height="24" viewBox="0 0 24 24" fill="none" xmlns="http://www.w3.org/2000/svg">
<path d="M6.59613 6.33744C8.61883 4.45765 11.7826 4.57362 13.6625 6.59623C15.3092 8.36801 15.4239 11.0147 14.0678 12.9078L16.8598 15.9117C17.2357 16.3161 17.2123 16.9487 16.808 17.3247C16.4035 17.7007 15.7709 17.6775 15.395 17.273L12.603 14.2691C10.6158 15.4835 7.98415 15.1758 6.33734 13.4038C4.45772 11.3811 4.57351 8.21726 6.59613 6.33744ZM12.1977 7.95756C11.0697 6.74407 9.17105 6.67442 7.95746 7.80229C6.74391 8.93016 6.67448 10.8289 7.80218 12.0425C8.93011 13.2561 10.8288 13.3257 12.0424 12.1978C13.256 11.0698 13.3256 9.17119 12.1977 7.95756Z" fill="black"/>
</svg>
