<svg width="24" height="24" viewBox="0 0 24 24" fill="none" xmlns="http://www.w3.org/2000/svg">
<path d="M12.3192 2C13.7332 2.00023 14.955 2.9877 15.2518 4.37012L15.3056 4.61914C15.4302 5.19874 16.0289 5.54288 16.5927 5.35938L16.6972 5.3252C18.06 4.8816 19.5463 5.46451 20.245 6.71582L20.621 7.3877C21.2895 8.58516 21.0605 10.0838 20.0653 11.0273L19.8056 11.2734C19.3896 11.6677 19.3888 12.3311 19.8046 12.7256L20.0663 12.9727C21.0609 13.9162 21.2891 15.4142 20.621 16.6113L20.246 17.2842C19.5472 18.5358 18.0601 19.1177 16.6972 18.6738L16.5927 18.6396C16.0288 18.4561 15.4301 18.801 15.3056 19.3809L15.2518 19.6299C14.9551 21.0123 13.7331 21.9998 12.3192 22H11.6825C10.2688 22 9.04722 21.013 8.7499 19.6309L8.69619 19.3809C8.57156 18.8011 7.97197 18.4559 7.4081 18.6396L7.30458 18.6738C5.94167 19.1179 4.45466 18.5356 3.75576 17.2842L3.38076 16.6113C2.71254 15.4141 2.94069 13.9162 3.93544 12.9727L4.19619 12.7256C4.61197 12.3312 4.61197 11.6688 4.19619 11.2744L3.93544 11.0273C2.94058 10.0837 2.71227 8.58496 3.38076 7.3877L3.75576 6.71582C4.45452 5.46434 5.94166 4.88244 7.30458 5.32617L7.4081 5.35938C7.97191 5.54294 8.57155 5.19883 8.69619 4.61914L8.7499 4.36914C9.04721 2.98706 10.2687 2 11.6825 2H12.3192ZM11.6825 4C11.2112 4 10.8041 4.32929 10.705 4.79004L10.6513 5.03906C10.2774 6.77815 8.4804 7.81241 6.78896 7.26172L6.68544 7.22754C6.23113 7.07963 5.73574 7.27425 5.50283 7.69141L5.12685 8.36328C4.90414 8.76235 4.9808 9.26166 5.3124 9.57617L5.57216 9.82324C6.81951 11.0063 6.81952 12.9937 5.57216 14.1768L5.3124 14.4238C4.98079 14.7383 4.90412 15.2376 5.12685 15.6367L5.50185 16.3086C5.73482 16.7259 6.23108 16.9206 6.68544 16.7725L6.78896 16.7383C8.48045 16.1873 10.2773 17.2208 10.6513 18.96L10.705 19.21C10.804 19.6707 11.2112 20 11.6825 20H12.3192C12.7904 19.9998 13.1978 19.6707 13.2968 19.21L13.3495 18.9609C13.7231 17.2214 15.52 16.1875 17.2118 16.7383L17.3163 16.7725C17.7707 16.9205 18.2659 16.7259 18.4989 16.3086L18.8749 15.6367C19.0976 15.2377 19.021 14.7383 18.6893 14.4238L18.4286 14.1758C17.1812 12.9924 17.1815 11.0052 18.4296 9.82227L18.6893 9.57617C19.0212 9.26164 19.0968 8.76149 18.8739 8.3623L18.4989 7.69043C18.2659 7.27356 17.7705 7.07972 17.3163 7.22754L17.2118 7.26172C15.5203 7.81231 13.7231 6.77832 13.3495 5.03906L13.2968 4.79004C13.1978 4.32934 12.7904 4.00023 12.3192 4H11.6825ZM12.0009 8.5C13.9338 8.50007 15.5009 10.067 15.5009 12C15.5009 13.933 13.9338 15.4999 12.0009 15.5C10.0679 15.5 8.50087 13.933 8.50087 12C8.50087 10.067 10.0679 8.5 12.0009 8.5ZM12.0009 10.5C11.1724 10.5 10.5009 11.1716 10.5009 12C10.5009 12.8284 11.1724 13.5 12.0009 13.5C12.8292 13.4999 13.5009 12.8284 13.5009 12C13.5009 11.1716 12.8292 10.5001 12.0009 10.5Z" fill="black"/>
</svg>
