<svg width="24" height="24" viewBox="0 0 24 24" fill="none" xmlns="http://www.w3.org/2000/svg">
<path d="M21.8604 5C22.4897 5.00005 23 5.51026 23 6.13965C23 6.76908 22.4898 7.27925 21.8604 7.2793H20.5625V19.9336C20.5623 21.5903 19.2192 22.9336 17.5625 22.9336H6.4375C4.78078 22.9336 3.43772 21.5903 3.4375 19.9336V7.2793H2.13965C1.51023 7.27925 1 6.76908 1 6.13965C1.00005 5.51026 1.51026 5.00005 2.13965 5H21.8604ZM5.4375 7.2793V19.9336C5.43772 20.4857 5.88535 20.9336 6.4375 20.9336H17.5625C18.1146 20.9336 18.5623 20.4857 18.5625 19.9336V7.2793H5.4375Z" fill="black"/>
<path d="M17 6V4C17 2.89543 16.1046 2 15 2H9C7.89543 2 7 2.89543 7 4V6" stroke="black" stroke-width="2"/>
</svg>
