<svg width="24" height="24" viewBox="0 0 24 24" fill="none" xmlns="http://www.w3.org/2000/svg">
<path d="M17.625 11.0098C19.2128 11.0098 20.4999 12.2971 20.5 13.8848V19.0098C20.5 20.6667 19.1569 22.0098 17.5 22.0098H6.5C4.84315 22.0098 3.5 20.6667 3.5 19.0098V14.0098C3.50007 12.353 4.84319 11.0098 6.5 11.0098C7.05224 11.0098 7.49993 11.4576 7.5 12.0098C7.5 12.5275 7.10666 12.9536 6.60254 13.0049L6.39746 13.0147C5.89337 13.066 5.50007 13.4922 5.5 14.0098V19.0098C5.5 19.5621 5.94772 20.0098 6.5 20.0098H17.5C18.0523 20.0098 18.5 19.5621 18.5 19.0098V13.8848C18.4999 13.4016 18.1082 13.0098 17.625 13.0098C17.0727 13.0098 16.625 12.5621 16.625 12.0098C16.6251 11.4576 17.0728 11.0098 17.625 11.0098ZM9.70605 3.0108C10.8873 1.67722 12.9639 1.66088 14.166 2.97564L17.2383 6.33502C17.6108 6.7426 17.5823 7.37546 17.1748 7.7481C16.7672 8.12067 16.1344 8.09219 15.7617 7.68463L13 4.66314V16.0098C13 16.5621 12.5523 17.0098 12 17.0098C11.4477 17.0098 11 16.5621 11 16.0098V4.56549L8.24902 7.67291C7.88289 8.08628 7.25035 8.12485 6.83691 7.75885C6.4236 7.39271 6.38499 6.76015 6.75098 6.34674L9.70605 3.0108Z" fill="black"/>
</svg>
